<?xml version="1.0" encoding="UTF-8"?>
<svg id="Layer_2" data-name="Layer 2" xmlns="http://www.w3.org/2000/svg" viewBox="0 0 99.3 26.19">
  <defs>
    <style>
      .cls-1 {
        fill: #fff;
      }
    </style>
  </defs>
  <g id="Layer_1-2" data-name="Layer 1">
    <g>
      <polygon class="cls-1" points="57.88 7.31 63.61 5.19 57.88 2.95 57.88 0 67.66 3.94 67.66 6.41 57.88 10.37 57.88 7.31"/>
      <path class="cls-1" d="M3.77,26.19c-2.07,0-3.77-1.05-3.77-3.37v-.14c0-2.83,2.44-3.74,5.39-3.74h1.45v-.54c0-1.16-.51-1.84-1.7-1.84-1.08,0-1.64,.6-1.73,1.47H.34c.23-2.52,2.24-3.8,4.96-3.8s4.73,1.19,4.73,4.05v7.65h-3.15v-1.3c-.54,.82-1.59,1.56-3.12,1.56h0Zm3.06-4.05v-1.11h-1.28c-1.59,0-2.38,.45-2.38,1.47v.11c0,.79,.48,1.33,1.56,1.33s2.1-.62,2.1-1.81h0Zm10.43,4.05c-3.17,0-5.47-1.98-5.47-5.87v-.14c0-3.88,2.47-5.95,5.5-5.95,2.61,0,4.76,1.33,5.02,4.34h-3.06c-.2-1.13-.77-1.84-1.87-1.84-1.36,0-2.32,1.08-2.32,3.32v.37c0,2.32,.85,3.37,2.32,3.37,1.11,0,1.93-.82,2.1-2.07h2.92c-.23,2.61-2.01,4.48-5.13,4.48h0Zm11.93,0c-3.17,0-5.47-1.98-5.47-5.87v-.14c0-3.88,2.44-5.95,5.5-5.95,2.61,0,4.73,1.33,5.02,4.34h-3.09c-.17-1.13-.77-1.84-1.87-1.84-1.36,0-2.3,1.08-2.3,3.32v.37c0,2.32,.82,3.37,2.32,3.37,1.08,0,1.9-.82,2.07-2.07h2.92c-.23,2.61-1.98,4.48-5.1,4.48h0Zm12.02,0c-3.32,0-5.58-1.98-5.58-5.78v-.23c0-3.83,2.38-5.95,5.47-5.95,2.83,0,5.22,1.62,5.22,5.41v1.36h-7.43c.11,2.07,.99,2.86,2.38,2.86,1.22,0,1.87-.65,2.1-1.5h2.95c-.34,2.18-2.13,3.83-5.1,3.83h0Zm-2.3-7.31h4.31c-.09-1.67-.85-2.41-2.13-2.41-.99,0-1.93,.57-2.18,2.41h0Zm9.38-4.39h3.2v1.7c.57-1.08,1.7-1.96,3.46-1.96,2.07,0,3.46,1.28,3.46,4.05v7.65h-3.2v-7.17c0-1.33-.54-1.93-1.7-1.93s-2.01,.68-2.01,2.13v6.97h-3.2V14.49Zm16.1-3.46v3.46h2.18v2.38h-2.18v5.44c0,.85,.4,1.25,1.13,1.25,.48,0,.82-.06,1.13-.2v2.49c-.37,.11-1.02,.26-1.81,.26-2.49,0-3.66-1.16-3.66-3.46v-5.78h-1.36v-2.38h1.36v-2.15l3.2-1.3Zm14.26,14.91h-3.2v-1.67c-.57,1.08-1.62,1.93-3.34,1.93-2.04,0-3.57-1.25-3.57-3.94v-7.77h3.23v7.29c0,1.3,.51,1.93,1.67,1.93s2.01-.71,2.01-2.13v-7.09h3.2v11.45Zm2.32-11.45h3.17v2.1c.68-1.53,1.76-2.24,3.46-2.24v3.15c-2.18,0-3.46,.65-3.46,2.55v5.9h-3.17V14.49Zm13.21,11.71c-3.32,0-5.58-1.98-5.58-5.78v-.23c0-3.83,2.41-5.95,5.47-5.95,2.83,0,5.22,1.62,5.22,5.41v1.36h-7.43c.11,2.07,.99,2.86,2.38,2.86,1.22,0,1.87-.65,2.1-1.5h2.95c-.34,2.18-2.1,3.83-5.1,3.83h0Zm-2.3-7.31h4.31c-.09-1.67-.85-2.41-2.1-2.41-1.02,0-1.93,.57-2.21,2.41h0Z"/>
    </g>
  </g>
</svg>