<?xml version="1.0" encoding="UTF-8"?>
<svg id="Layer_2" data-name="Layer 2" xmlns="http://www.w3.org/2000/svg" viewBox="0 0 256.71 44.22">
  <defs>
    <style>
      .cls-1 {
        fill: #fff;
      }
    </style>
  </defs>
  <g id="Layer_1-2" data-name="Layer 1">
    <path class="cls-1" d="M59.47,15.68h6.07c3.4,0,5.16-1.42,5.16-4.11v-.09c0-1.98-1.02-3.09-2.95-3.46,1.64-.48,2.41-1.62,2.41-3.17v-.09c0-2.49-1.67-3.83-4.9-3.83h-5.78V15.68Zm3.26-2.3v-4.22h2.13c1.81,0,2.55,.68,2.55,2.04v.09c0,1.36-.74,2.1-2.41,2.1h-2.27Zm0-6.38V3.23h1.98c1.56,0,2.27,.54,2.27,1.79v.09c0,1.33-.65,1.9-2.27,1.9h-1.98Zm10.15,8.67h2.95V4.9h-2.95V15.68Zm1.45-12.25c.96,0,1.73-.71,1.73-1.62s-.77-1.64-1.73-1.64-1.67,.71-1.67,1.64,.74,1.62,1.67,1.62h0Zm7.17,12.47c1.67,0,2.64-.65,3.26-1.53v1.3h2.89v-7.03c0-2.92-1.87-4-4.51-4s-4.68,1.13-4.85,3.68h2.83c.11-.94,.65-1.53,1.81-1.53,1.36,0,1.76,.71,1.76,1.98v.43h-1.22c-3.29,0-5.61,.96-5.61,3.49,0,2.27,1.67,3.2,3.63,3.2h0Zm.88-2.07c-1.11,0-1.56-.51-1.56-1.3,0-1.16,.99-1.53,2.72-1.53h1.16v.91c0,1.19-.99,1.93-2.32,1.93h0Zm11.76,2.07c2.83,0,4.54-1.22,4.54-3.54s-1.5-2.98-4.2-3.37c-1.56-.23-2.07-.51-2.07-1.19s.54-1.11,1.5-1.11c1.05,0,1.53,.43,1.7,1.3h2.75c-.28-2.47-2.07-3.34-4.45-3.34-2.21,0-4.28,1.11-4.28,3.37,0,2.1,1.11,2.92,3.97,3.34,1.56,.23,2.21,.54,2.21,1.28s-.54,1.19-1.7,1.19c-1.3,0-1.79-.57-1.9-1.53h-2.78c.09,2.32,1.79,3.6,4.71,3.6h0Zm17.23,0c3.97,0,6.21-2.07,6.21-6.09V.94h-3.34V9.61c0,2.69-.88,3.63-2.83,3.63s-2.75-1.05-2.75-3.51V.94h-3.37V9.92c0,3.91,2.21,5.98,6.09,5.98h0Zm8.9-.23h3v-6.24c0-1.59,.96-2.35,2.24-2.35s1.9,.71,1.9,2.15v6.43h2.98v-6.86c0-2.89-1.5-4.17-3.63-4.17-1.79,0-2.98,.88-3.49,1.96v-1.7h-3V15.68Zm15.39,0h3.34l3.94-10.77h-2.89l-2.55,7.71-2.58-7.71h-3.2l3.94,10.77Zm13.32,.23c2.95,0,4.82-1.3,5.16-3.63h-2.81c-.2,.91-.88,1.5-2.27,1.5-1.62,0-2.58-1.02-2.66-2.81h7.77v-.85c0-3.86-2.47-5.47-5.24-5.47-3.15,0-5.56,2.21-5.56,5.61v.17c0,3.43,2.35,5.47,5.61,5.47h0Zm-2.55-6.77c.23-1.53,1.13-2.41,2.49-2.41s2.24,.77,2.32,2.41h-4.82Zm9.78,6.55h2.98V4.9h-2.98V15.68Zm1.47-12.25c.96,0,1.7-.71,1.7-1.62s-.74-1.64-1.7-1.64-1.7,.71-1.7,1.64,.74,1.62,1.7,1.62h0Zm4.31,12.25h2.98V0h-2.98V15.68Zm10.69,.23c2.95,0,4.79-1.3,5.13-3.63h-2.81c-.2,.91-.88,1.5-2.27,1.5-1.62,0-2.58-1.02-2.66-2.81h7.77v-.85c0-3.86-2.47-5.47-5.24-5.47-3.15,0-5.56,2.21-5.56,5.61v.17c0,3.43,2.38,5.47,5.64,5.47h0Zm-2.58-6.77c.23-1.53,1.13-2.41,2.49-2.41s2.24,.77,2.35,2.41h-4.85Zm13.75,6.77c1.59,0,2.89-.94,3.46-2.01v1.79h2.98V0h-2.98V6.49c-.6-1.08-1.67-1.84-3.4-1.84-2.69,0-4.73,2.07-4.73,5.64v.14c0,3.6,2.04,5.47,4.68,5.47h0Zm.88-2.32c-1.47,0-2.52-1.05-2.52-3.2v-.17c0-2.13,.94-3.26,2.61-3.26s2.58,1.08,2.58,3.23v.17c0,2.18-1.11,3.23-2.66,3.23h0Zm9.95,2.3c1.08,0,1.87-.82,1.87-1.81s-.79-1.81-1.87-1.81c-1.02,0-1.81,.82-1.81,1.81s.79,1.81,1.81,1.81h0Zm0-5.98c1.08,0,1.87-.82,1.87-1.81s-.79-1.81-1.87-1.81c-1.02,0-1.81,.82-1.81,1.81s.79,1.81,1.81,1.81h0ZM0,40.22H3.32v-5.36h1.87c3.37,0,5.53-1.47,5.53-4.59v-.09c0-3.12-2.04-4.71-5.61-4.71H0v14.74Zm3.32-7.68v-4.51h1.7c1.59,0,2.49,.6,2.49,2.18v.09c0,1.45-.88,2.24-2.49,2.24h-1.7Zm9.33,7.68h3v-5.39c0-2.07,1.28-2.81,3.46-2.78v-2.78c-1.73,.03-2.78,.79-3.46,2.21v-2.04h-3v10.77Zm13.27-2.04c-1.7,0-2.64-1.22-2.64-3.29v-.17c0-2.07,.99-3.26,2.64-3.26s2.64,1.25,2.64,3.29v.17c0,2.04-.96,3.26-2.64,3.26h0Zm-.03,2.27c3.23,0,5.7-2.15,5.7-5.56v-.17c0-3.37-2.44-5.53-5.67-5.53s-5.7,2.21-5.7,5.58v.17c0,3.37,2.47,5.5,5.67,5.5h0Zm14.12,0c2.69,0,4.71-1.98,4.71-5.56v-.17c0-3.57-2.04-5.53-4.71-5.53-1.59,0-2.83,.91-3.43,1.93v-6.58h-3v15.68h3v-1.7c.57,1.11,1.76,1.93,3.43,1.93h0Zm-.88-2.32c-1.62,0-2.66-1.05-2.66-3.2v-.17c0-2.18,1.08-3.26,2.64-3.26s2.58,1.08,2.58,3.26v.17c0,2.1-.91,3.2-2.55,3.2h0Zm7.68,2.1h2.95v-10.77h-2.95v10.77Zm1.45-12.25c.99,0,1.73-.71,1.73-1.62s-.74-1.64-1.73-1.64c-.94,0-1.67,.71-1.67,1.64s.74,1.62,1.67,1.62h0Zm4.25,12.25h3v-6.21c0-1.59,.96-2.38,2.24-2.38s1.9,.71,1.9,2.15v6.43h2.98v-6.86c0-2.89-1.5-4.17-3.63-4.17-1.79,0-2.95,.88-3.49,1.96v-1.7h-3v10.77Zm17.46,4c3.57,0,5.67-1.64,5.7-4.85v-9.92h-2.98v1.59c-.6-1.08-1.64-1.84-3.4-1.84-2.69,0-4.76,2.15-4.76,5.27v.14c0,3.17,2.1,5.13,4.71,5.13,1.59,0,2.86-.94,3.46-1.98v1.62c0,1.7-.91,2.66-2.72,2.66-1.5,0-2.18-.62-2.38-1.59h-2.98c.28,2.24,1.87,3.77,5.36,3.77h0Zm.14-6.72c-1.47,0-2.52-1.11-2.52-2.89v-.17c0-1.79,.94-2.98,2.61-2.98s2.58,1.11,2.58,2.95v.14c0,1.84-1.08,2.95-2.66,2.95h0Zm18.99,2.95c4,0,6.24-2.07,6.24-6.09v-8.87h-3.34v8.67c0,2.69-.88,3.63-2.86,3.63s-2.75-1.05-2.75-3.51v-8.79h-3.34v8.99c0,3.91,2.21,5.98,6.07,5.98h0Zm8.93-.23h2.98v-6.21c0-1.59,.96-2.38,2.27-2.38s1.87,.71,1.87,2.15v6.43h3v-6.86c0-2.89-1.5-4.17-3.63-4.17-1.79,0-2.98,.88-3.51,1.96v-1.7h-2.98v10.77Zm17.57,.23c3.12,0,4.99-1.76,5.13-4.34h-2.69c-.14,1.39-1.11,2.1-2.3,2.1-1.67,0-2.64-1.11-2.64-3.29v-.17c0-2.04,1.02-3.2,2.55-3.2,1.22,0,1.98,.57,2.21,1.84h2.81c-.26-3.09-2.58-4.2-5.07-4.2-3.06,0-5.56,2.13-5.56,5.61v.17c0,3.51,2.38,5.47,5.56,5.47h0Zm12.05-2.27c-1.7,0-2.64-1.22-2.64-3.29v-.17c0-2.07,.99-3.26,2.64-3.26s2.64,1.25,2.64,3.29v.17c0,2.04-.96,3.26-2.64,3.26h0Zm-.03,2.27c3.26,0,5.7-2.15,5.7-5.56v-.17c0-3.37-2.44-5.53-5.67-5.53s-5.7,2.21-5.7,5.58v.17c0,3.37,2.47,5.5,5.67,5.5h0Zm7.71-.23h2.98v-6.21c0-1.59,.96-2.38,2.27-2.38s1.87,.71,1.87,2.15v6.43h3v-6.86c0-2.89-1.5-4.17-3.63-4.17-1.79,0-2.98,.88-3.51,1.96v-1.7h-2.98v10.77Zm16.58,.23c2.86,0,4.54-1.22,4.54-3.54s-1.47-2.98-4.17-3.37c-1.59-.23-2.1-.51-2.1-1.19s.57-1.11,1.53-1.11c1.02,0,1.53,.43,1.7,1.3h2.72c-.26-2.47-2.04-3.34-4.45-3.34-2.18,0-4.25,1.11-4.25,3.37,0,2.1,1.11,2.92,3.97,3.34,1.56,.23,2.18,.54,2.18,1.28s-.54,1.19-1.67,1.19c-1.3,0-1.79-.57-1.9-1.53h-2.81c.11,2.32,1.81,3.6,4.71,3.6h0Zm11.34,0c3.12,0,4.99-1.76,5.16-4.34h-2.72c-.14,1.39-1.11,2.1-2.3,2.1-1.67,0-2.64-1.11-2.64-3.29v-.17c0-2.04,1.02-3.2,2.58-3.2,1.22,0,1.96,.57,2.18,1.84h2.81c-.26-3.09-2.58-4.2-5.07-4.2-3.06,0-5.56,2.13-5.56,5.61v.17c0,3.51,2.38,5.47,5.56,5.47h0Zm7.11-.23h2.95v-10.77h-2.95v10.77Zm1.45-12.25c.99,0,1.73-.71,1.73-1.62s-.74-1.64-1.73-1.64c-.94,0-1.67,.71-1.67,1.64s.74,1.62,1.67,1.62h0Zm9.3,10.2c-1.7,0-2.64-1.22-2.64-3.29v-.17c0-2.07,.99-3.26,2.64-3.26s2.64,1.25,2.64,3.29v.17c0,2.04-.96,3.26-2.64,3.26h0Zm-.03,2.27c3.23,0,5.7-2.15,5.7-5.56v-.17c0-3.37-2.44-5.53-5.67-5.53s-5.7,2.21-5.7,5.58v.17c0,3.37,2.47,5.5,5.67,5.5h0Zm11.28,0c1.76,0,2.86-.82,3.43-1.9v1.67h2.95v-10.77h-2.95v6.32c0,1.59-.99,2.38-2.27,2.38s-1.87-.71-1.87-2.18v-6.52h-2.98v6.94c0,2.83,1.59,4.05,3.69,4.05h0Zm12.95,0c2.83,0,4.54-1.22,4.54-3.54s-1.5-2.98-4.2-3.37c-1.56-.23-2.07-.51-2.07-1.19s.54-1.11,1.53-1.11,1.5,.43,1.67,1.3h2.75c-.28-2.47-2.07-3.34-4.45-3.34-2.21,0-4.28,1.11-4.28,3.37,0,2.1,1.11,2.92,4,3.34,1.53,.23,2.18,.54,2.18,1.28s-.54,1.19-1.7,1.19c-1.3,0-1.79-.57-1.9-1.53h-2.78c.11,2.32,1.79,3.6,4.71,3.6h0Zm12.19-.23h6.07c3.4,0,5.16-1.42,5.16-4.11v-.09c0-1.98-1.02-3.09-2.95-3.46,1.64-.48,2.41-1.62,2.41-3.17v-.09c0-2.49-1.67-3.83-4.9-3.83h-5.78v14.74Zm3.26-2.3v-4.22h2.13c1.81,0,2.55,.68,2.55,2.04v.09c0,1.36-.74,2.1-2.41,2.1h-2.27Zm0-6.38v-3.77h1.96c1.59,0,2.3,.54,2.3,1.79v.09c0,1.33-.65,1.9-2.27,1.9h-1.98Zm10.15,8.67h2.95v-10.77h-2.95v10.77Zm1.45-12.25c.96,0,1.73-.71,1.73-1.62s-.77-1.64-1.73-1.64-1.67,.71-1.67,1.64,.74,1.62,1.67,1.62h0Zm7.17,12.47c1.67,0,2.64-.65,3.26-1.53v1.3h2.89v-7.03c0-2.92-1.87-4-4.51-4s-4.68,1.13-4.85,3.69h2.83c.11-.94,.65-1.53,1.81-1.53,1.36,0,1.76,.71,1.76,1.98v.45h-1.22c-3.29,0-5.61,.94-5.61,3.46,0,2.27,1.67,3.2,3.63,3.2h0Zm.88-2.07c-1.11,0-1.56-.51-1.56-1.3,0-1.16,.99-1.53,2.72-1.53h1.16v.91c0,1.19-1.02,1.93-2.32,1.93h0Zm11.76,2.07c2.83,0,4.54-1.22,4.54-3.54s-1.5-2.98-4.2-3.37c-1.56-.23-2.1-.51-2.1-1.19s.57-1.11,1.53-1.11c1.05,0,1.53,.43,1.7,1.3h2.75c-.28-2.47-2.07-3.34-4.45-3.34-2.21,0-4.28,1.11-4.28,3.37,0,2.1,1.11,2.92,3.97,3.34,1.56,.23,2.21,.54,2.21,1.28s-.54,1.19-1.7,1.19c-1.3,0-1.79-.57-1.9-1.53h-2.78c.09,2.32,1.79,3.6,4.71,3.6h0Z"/>
  </g>
</svg>